<?xml version="1.0" standalone="no"?><!DOCTYPE svg PUBLIC "-//W3C//DTD SVG 1.1//EN" "http://www.w3.org/Graphics/SVG/1.1/DTD/svg11.dtd"><svg t="1571967728557" class="icon" viewBox="0 0 1024 1024" version="1.1" xmlns="http://www.w3.org/2000/svg" p-id="6221" xmlns:xlink="http://www.w3.org/1999/xlink" width="200" height="200"><defs><style type="text/css"></style></defs><path d="M516.655 9.31C237.382 9.31 10.86 235.83 10.86 515.102s226.52 505.794 505.794 505.794 505.793-226.521 505.793-505.794c0-277.721-226.52-505.794-505.793-505.794z m0 982.108c-262.207 0-474.764-212.557-474.764-474.763 0-262.207 212.557-474.764 474.764-474.764 262.206 0 474.763 212.557 474.763 474.764 0 262.206-212.557 474.763-474.763 474.763z" p-id="6222"></path><path d="M705.94 474.764L470.11 325.818c-21.722-13.963-51.2-7.757-63.613 13.964-4.655 7.757-7.758 15.515-7.758 24.824v297.891c0 26.376 20.17 46.545 46.546 46.545 9.309 0 17.067-3.103 24.824-7.757l237.382-148.946c21.721-13.963 27.927-41.89 13.964-63.612-4.655-4.654-9.31-9.309-15.516-13.963z" p-id="6223"></path></svg>